<?xml version="1.0" encoding="UTF-8" standalone="no"?><!DOCTYPE svg PUBLIC "-//W3C//DTD SVG 1.1//EN" "http://www.w3.org/Graphics/SVG/1.1/DTD/svg11.dtd"><svg width="100%" height="100%" viewBox="0 0 2500 2500" version="1.1" xmlns="http://www.w3.org/2000/svg" xmlns:xlink="http://www.w3.org/1999/xlink" xml:space="preserve" xmlns:serif="http://www.serif.com/" style="fill-rule:evenodd;clip-rule:evenodd;stroke-linejoin:round;stroke-miterlimit:1.41421;"><g><path d="M436.212,215.104c-11.789,103.758 29.091,198.074 116.326,254.674c135.988,93.538 294.764,130.489 424.461,238.164c35.382,33.008 58.17,73.888 51.088,122.616c-105.327,116.326 -184.715,265.672 -133.627,426.031c36.951,128.893 95.107,249.162 157.998,367.861c-119.478,58.948 -269.616,127.311 -322.273,264.077c-11.79,34.604 -24.357,68.39 -29.87,105.328c-17.288,-111.605 -80.957,-212.224 -176.064,-288.474c7.081,44.811 -0.791,92.76 -22.01,130.489c-58.156,82.527 -98.246,194.171 -58.947,296.333c23.592,71.542 95.107,138.336 165.857,160.346c-132.836,-3.139 -268.033,-71.516 -327.772,-196.492c-52.67,-111.605 -29.078,-262.534 44.798,-356.85c49.518,-75.459 135.196,-143.861 111.617,-242.885c99.816,57.378 227.166,81.748 290.821,195.714c7.86,-10.999 0,-25.149 0,-37.717c-36.937,-128.906 -180.785,-142.291 -273.532,-205.155c-98.246,-39.312 -184.715,-140.696 -191.006,-249.162c-8.65,-64.46 -3.151,-132.837 24.371,-187.076c62.086,115.534 193.353,143.056 294.75,202.004c60.53,32.217 130.489,58.934 169.775,126.546c2.373,-54.24 -30.648,-102.189 -75.445,-135.988c-162.706,-88.013 -422.101,-166.623 -426.809,-400.079c-2.361,-66.807 14.928,-124.976 44.019,-179.216c7.86,7.86 7.86,22.801 14.928,32.23c102.967,154.846 278.253,170.565 407.173,285.335c19.649,19.649 31.426,44.019 47.158,66.016c13.372,-63.656 -22.01,-121.047 -75.458,-157.194c-35.369,-22.8 -77.028,-36.159 -110.827,-59.738c-125.768,-54.24 -282.183,-165.066 -286.904,-319.121c-22.801,-138.336 51.088,-260.174 164.275,-341.131c-6.29,23.579 -18.871,52.657 -18.871,82.514Z" style="fill:#fff;"/><path d="M1267.82,2103.92c35.369,-130.488 -31.425,-276.671 20.441,-404.008c0,-3.139 1.569,-7.068 -1.57,-9.429c-29.091,23.579 -52.67,47.949 -80.97,73.889c44.02,-90.412 80.179,-201.239 56.6,-313.635c-3.138,-8.664 -10.233,0 -11.789,3.93c-23.579,69.972 -92.747,120.269 -156.429,150.929c-79.388,-155.637 -174.495,-306.566 -165.844,-495.99c19.649,-172.926 188.645,-278.253 258.604,-429.947c16.498,-53.462 6.278,-114.77 -32.23,-154.846c-36.938,-36.147 -81.735,-52.671 -130.476,-60.517c6.278,-21.232 22.788,-43.229 44.02,-52.671c42.437,-21.231 92.747,-2.36 132.045,13.359c66.029,-31.438 144.626,-1.569 205.143,25.94c58.947,25.939 106.897,79.388 177.647,77.805c-1.57,18.093 -22.801,30.661 -37.742,37.742c-55.809,7.86 -103.758,-19.649 -150.904,-32.229c56.588,90.399 33.787,212.224 1.57,307.331c0.791,0.791 1.569,1.569 2.36,1.569c62.087,-85.665 156.429,-143.847 245.233,-190.214c92.759,-44.811 186.284,-87.261 279.057,-133.628c87.248,-53.448 161.136,-145.417 157.998,-253.105c-2.361,-38.52 -7.873,-76.249 -24.37,-109.27c116.325,78.61 177.62,198.879 162.705,337.214c-11.802,130.489 -116.352,258.591 -239.733,300.263c-94.329,60.517 -259.395,94.316 -264.103,237.373c29.869,-47.158 77.818,-88.83 128.128,-110.827c129.672,-76.236 295.542,-106.897 369.431,-260.186l3.93,0c55.017,115.547 42.424,275.892 -47.171,371c-103.758,111.618 -248.397,133.627 -367.862,213.793c-55.809,34.604 -86.456,92.76 -88.817,152.499c66.016,-123.42 205.13,-142.265 311.249,-203.574c69.18,-33.799 144.639,-69.958 191.031,-137.544l3.93,0c31.439,124.977 18.845,277.475 -87.247,363.932c-96.69,77.818 -212.251,110.826 -315.205,175.273c-33.812,25.148 -53.448,58.974 -66.042,94.329c1.57,1.57 3.139,2.361 3.93,3.93c90.412,-94.303 219.293,-96.69 316.774,-173.704c-18.871,139.127 126.559,217.723 143.86,345.061c32.217,142.265 -17.301,281.379 -130.488,373.334c-69.972,52.67 -160.346,62.904 -249.189,64.473c15.733,-3.139 32.243,-11.024 49.519,-13.372c76.249,-27.509 145.404,-101.372 150.929,-184.715c10.999,-142.266 -132.836,-254.662 -51.088,-397.705c-22.801,1.569 -42.45,21.984 -64.446,33.786c-118.7,79.388 -167.44,208.307 -245.233,315.204l-3.164,0c46.379,-76.249 19.662,-183.146 80.957,-253.118c7.094,-3.929 8.638,-14.163 13.372,-20.44c-42.45,4.708 -81.749,29.104 -117.13,56.587c-180.773,121.851 -192.575,382.025 -420.506,440.972c-59.739,17.302 -130.489,22.801 -192.575,17.302c101.385,-14.928 207.503,-89.608 231.86,-194.145Zm99.829,-124.963c89.595,-119.491 282.974,-165.871 297.902,-334.076c-25.148,22.01 -55.017,33.009 -80.957,55.018c-2.361,0.791 -7.069,3.93 -9.429,0c22.775,-40.855 32.217,-87.247 43.215,-132.058c3.139,-27.509 10.233,-57.378 11.803,-80.957c-70.75,70.75 -168.231,97.481 -222.458,188.645c-64.446,87.274 -35.368,201.239 -40.076,303.428Z" style="fill:#fff;"/><path d="M1101.96,1741.57c-51.879,110.827 10.22,259.395 -52.657,367.862c-60.53,123.394 -194.145,202.782 -336.41,188.645c48.728,-11.025 88.039,-62.904 100.607,-107.688c23.579,-92.76 7.859,-202.808 71.528,-279.058c59.739,-95.12 161.914,-130.488 237.372,-207.516c0,11.037 -15.706,24.383 -20.44,37.755Zm797.835,154.833c-37.742,79.414 3.139,170.578 -33.812,254.687c-29.869,76.25 -110.035,132.837 -188.619,143.07c-93.551,7.847 -185.533,7.847 -279.058,7.847c187.076,-31.465 341.144,-185.507 440.946,-347.422c16.511,-21.231 37.742,-44.81 60.543,-58.182Z" style="fill:#fff;"/></g></svg>